<svg width="19" height="19" viewBox="0 0 19 19" fill="none" xmlns="http://www.w3.org/2000/svg">
<path d="M8.27066 4.60464L5.39528 1.28559C5.0638 0.903111 4.45609 0.904811 4.07106 1.29069L1.70651 3.6595C1.00275 4.3641 0.801309 5.41039 1.20843 6.24929C3.64067 11.2852 7.70209 15.3523 12.7346 17.7916C13.5726 18.1987 14.6181 17.9973 15.3218 17.2927L17.7085 14.9018C18.0952 14.515 18.0961 13.9039 17.7102 13.5725L14.3784 10.7124C14.0299 10.4132 13.4885 10.4523 13.1392 10.8025L11.9798 11.9635C11.9205 12.0257 11.8424 12.0667 11.7575 12.0802C11.6725 12.0937 11.5855 12.079 11.5098 12.0383C9.61481 10.947 8.04287 9.37305 6.95409 7.47662C6.91332 7.40076 6.89855 7.31362 6.91206 7.22857C6.92557 7.14351 6.96661 7.06523 7.02889 7.00575L8.18482 5.84897C8.535 5.49709 8.57324 4.95312 8.27066 4.60379V4.60464Z" stroke="#1D2849" stroke-width="2" stroke-linecap="round" stroke-linejoin="round"/>
</svg>
