<svg width="17" height="11" viewBox="0 0 17 11" fill="none" xmlns="http://www.w3.org/2000/svg">
<path d="M8.55472 0H8.64929C9.52272 0.0029362 13.9483 0.0322984 15.1416 0.327876C15.5023 0.418085 15.831 0.593918 16.0949 0.837805C16.3587 1.08169 16.5484 1.38509 16.6451 1.71768C16.7524 2.0896 16.8279 2.5819 16.8789 3.08987L16.8895 3.19165L16.9129 3.44612L16.9214 3.54791C16.9904 4.44248 16.9989 5.28027 17 5.4633V5.5367C16.9989 5.72658 16.9894 6.62114 16.9129 7.5529L16.9044 7.65566L16.8948 7.75745C16.8417 8.31729 16.763 8.87321 16.6451 9.28232C16.5487 9.61504 16.3591 9.91859 16.0952 10.1625C15.8313 10.4064 15.5025 10.5822 15.1416 10.6721C13.909 10.9775 9.22414 10.999 8.57491 11H8.42403C8.09569 11 6.73773 10.9941 5.31389 10.9491L5.13326 10.9432L5.04081 10.9393L4.85912 10.9325L4.67742 10.9256C3.49797 10.8777 2.37484 10.8003 1.85737 10.6711C1.49661 10.5813 1.16783 10.4057 0.903951 10.1619C0.640073 9.9182 0.450365 9.61486 0.353835 9.28232C0.23589 8.87419 0.15726 8.31729 0.104132 7.75745L0.095631 7.65468L0.0871304 7.5529C0.0346902 6.8897 0.00563146 6.22512 0 5.56019L0 5.43981C0.00212513 5.22938 0.0106257 4.50218 0.0680043 3.69962L0.0754422 3.59881L0.0786299 3.54791L0.0871304 3.44612L0.110507 3.19165L0.121133 3.08987C0.172136 2.5819 0.247578 2.08862 0.354897 1.71768C0.451265 1.38496 0.6409 1.08141 0.904789 0.837486C1.16868 0.593557 1.49755 0.417814 1.85843 0.327876C2.3759 0.200641 3.49903 0.122342 4.67848 0.073405L4.85912 0.0665539L5.04188 0.0606817L5.13326 0.0577455L5.31496 0.0508944C6.32621 0.0209202 7.33788 0.00427987 8.34965 0.00097878L8.55472 0ZM6.80043 3.14174V7.85728L11.2175 5.50049L6.80043 3.14174Z" fill="#1D2849"/>
</svg>
